<?xml version="1.0" encoding="UTF-8"?>
<svg width="121px" height="59px" viewBox="0 0 121 59" version="1.1" xmlns="http://www.w3.org/2000/svg" xmlns:xlink="http://www.w3.org/1999/xlink">
    <!-- Generator: Sketch 52.6 (67491) - http://www.bohemiancoding.com/sketch -->
    <title>Medium-House</title>
    <desc>Created with Sketch.</desc>
    <g id="Page-1" stroke="none" stroke-width="1" fill="none" fill-rule="evenodd">
        <g id="Medium-House" transform="translate(-4.000000, -35.000000)">
            <g transform="translate(4.000000, 35.000000)">
                <g id="Bush" transform="translate(101.000000, 51.000000)" fill="#B8E986">
                    <path d="M0.341411415,8 C0.120308442,7.37444215 0,6.70127085 0,6 C0,2.6862915 2.6862915,0 6,0 C8.35905052,0 10.4001193,1.3614416 11.3803605,3.34147896 C11.8754941,3.12195716 12.4235047,3 13,3 C15.209139,3 17,4.790861 17,7 C17,7.34529957 16.956247,7.68038008 16.8739825,8 L0.341411415,8 Z" id="Combined-Shape"></path>
                </g>
                <g id="Bush" transform="translate(14.500000, 55.000000) scale(-1, 1) translate(-14.500000, -55.000000) translate(6.000000, 51.000000)" fill="#B8E986">
                    <path d="M0.341411415,8 C0.120308442,7.37444215 0,6.70127085 0,6 C0,2.6862915 2.6862915,0 6,0 C8.35905052,0 10.4001193,1.3614416 11.3803605,3.34147896 C11.8754941,3.12195716 12.4235047,3 13,3 C15.209139,3 17,4.790861 17,7 C17,7.34529957 16.956247,7.68038008 16.8739825,8 L0.341411415,8 Z" id="Combined-Shape"></path>
                </g>
                <g id="Chimney" transform="translate(34.000000, 0.000000)" fill="#FBFAF6" stroke="#979797">
                    <g>
                        <rect id="Rectangle-3" x="2.5" y="3.5" width="5" height="7"></rect>
                        <rect id="Rectangle-4" x="0.5" y="0.5" width="9" height="3" rx="1"></rect>
                    </g>
                </g>
                <g id="Roof" transform="translate(20.000000, 6.000000)" stroke="#979797">
                    <path d="M9.58274775,0.5 L75.4172523,0.5 C75.8437655,0.5 76.2233359,0.770518946 76.3625135,1.17368532 L82.34375,18.5 L2.65625,18.5 L8.63748655,1.17368532 C8.77666407,0.770518946 9.15623455,0.5 9.58274775,0.5 Z" id="Rectangle" fill="#D8D8D8"></path>
                    <path d="M1,18.5 L84,18.5 C84.5522847,18.5 85,18.9477153 85,19.5 L85,19.5 C85,20.0522847 84.5522847,20.5 84,20.5 L1,20.5 C0.44771525,20.5 6.76353751e-17,20.0522847 0,19.5 L0,19.5 C-6.76353751e-17,18.9477153 0.44771525,18.5 1,18.5 Z" id="Rectangle-3" fill="#FFFFFF"></path>
                </g>
                <path d="M0.5,58 L120.5,58 C120.776142,58 121,58.2238576 121,58.5 L121,58.5 C121,58.7761424 120.776142,59 120.5,59 L0.5,59 C0.223857625,59 3.38176876e-17,58.7761424 0,58.5 L0,58.5 C-3.38176876e-17,58.2238576 0.223857625,58 0.5,58 Z" id="Ground" fill="#979797"></path>
                <path d="M17,56.5 C16.7238576,56.5 16.5,56.7238576 16.5,57 L16.5,58 C16.5,58.2761424 16.7238576,58.5 17,58.5 L104,58.5 C104.276142,58.5 104.5,58.2761424 104.5,58 L104.5,57 C104.5,56.7238576 104.276142,56.5 104,56.5 L17,56.5 Z" id="Slab" stroke="#979797" fill="#D8D8D8"></path>
                <path d="M21.5,26.5 L102.5,26.5 L102.5,56.5 L21.5,56.5 L21.5,26.5 Z" id="Body" stroke="#979797" fill="#FBFAF6"></path>
                <g id="Window" transform="translate(24.000000, 37.000000)">
                    <g stroke-width="1" fill-rule="evenodd">
                        <path d="M2.5,11.5 L13.5,11.5 L13.5,1 C13.5,0.723857625 13.2761424,0.5 13,0.5 L3,0.5 C2.72385763,0.5 2.5,0.723857625 2.5,1 L2.5,11.5 Z" id="Rectangle-4" stroke="#979797" fill="#D8D8D8"></path>
                        <rect id="Rectangle-5" fill="#9B9B9B" x="0" y="11" width="16" height="1" rx="0.5"></rect>
                    </g>
                    <rect id="Shadow" fill-opacity="0.5" fill="#9B9B9B" fill-rule="evenodd" x="3" y="1" width="10" height="1"></rect>
                    <path d="M8,0.5 L8,11.5" id="Line" stroke="#979797" stroke-width="1" stroke-linecap="square"></path>
                    <path d="M13.5,6 L2.5,6" id="Line-Copy" stroke="#979797" stroke-width="1" stroke-linecap="square"></path>
                </g>
                <g id="Door" transform="translate(40.000000, 12.000000)">
                    <g>
                        <rect id="Stoop" stroke="#979797" x="0.5" y="41.5" width="27" height="3" rx="1"></rect>
                        <path d="M14.3884017,1.27290005 C14.3665279,1.24592226 14.3419026,1.22129699 14.3149249,1.1994231 C14.1004299,1.02550791 13.7855612,1.05840438 13.611646,1.27289942 L0.709841369,17.1850987 C0.637627713,17.2741621 0.598218988,17.3853392 0.598218988,17.5 C0.598218988,17.7761424 0.822076613,18 1.09821899,18 L26.9017854,18 C27.0164459,18 27.1276228,17.9605915 27.2166861,17.8883781 C27.4311814,17.7144633 27.4640784,17.3995947 27.2901635,17.1850993 L14.3884017,1.27290005 Z" id="Roof" stroke="#979797" fill="#FFFFFF"></path>
                        <path d="M2.5,18.1753905 L2.5,41.5 L25.5,41.5 L25.5,18.1753905 L14.3904344,4.28843354 C14.3673685,4.25960118 14.3411799,4.23341254 14.3123475,4.21034665 C14.0967166,4.03784188 13.7820704,4.07280257 13.6095656,4.28843354 L2.5,18.1753905 Z" id="Combined-Shape" stroke="#979797" fill="#FBFAF6"></path>
                        <g transform="translate(8.000000, 22.000000)">
                            <rect id="Frame" stroke="#979797" fill="#D8D8D8" x="0.5" y="0.5" width="11" height="19"></rect>
                            <circle id="Handle" fill="#979797" cx="3" cy="11" r="1"></circle>
                        </g>
                        <circle id="Oval-Window" stroke="#979797" fill="#D8D8D8" cx="14" cy="15" r="3.5"></circle>
                    </g>
                </g>
                <g id="Garage-Door" transform="translate(72.000000, 37.000000)">
                    <path d="M0.5,21.5 L23.5,21.5 L23.5,1 C23.5,0.723857625 23.2761424,0.5 23,0.5 L1,0.5 C0.723857625,0.5 0.5,0.723857625 0.5,1 L0.5,21.5 Z" id="Rectangle-2" stroke="#979797" fill="#D8D8D8"></path>
                    <rect id="Rectangle-4" fill="#9B9B9B" x="4" y="6" width="16" height="1" rx="0.5"></rect>
                    <rect id="Rectangle-4-Copy" fill="#9B9B9B" x="4" y="11" width="16" height="1" rx="0.5"></rect>
                    <rect id="Rectangle-4-Copy-2" fill="#9B9B9B" x="4" y="16" width="16" height="1" rx="0.5"></rect>
                </g>
            </g>
        </g>
    </g>
</svg>