<svg height="91" viewBox="0 0 315 91" width="315" xmlns="http://www.w3.org/2000/svg"><g fill="#fbfaf6" fill-rule="evenodd" transform=""><path d="m27.38 20.16c6.8480342 0 12.7039757 2.3679763 17.568 7.104s7.296 11.0399606 7.296 18.912-2.4159758 14.2719754-7.248 19.2-10.4639678 7.392-16.896 7.392-12.2079744-2.8159718-17.328-8.448v26.304h-10.752v-69.696h10.752v8.928c4.2240211-6.4640323 9.7599658-9.696 16.608-9.696zm-16.8 26.4c0 4.8640243 1.4719853 8.8479845 4.416 11.952s6.5279789 4.656 10.752 4.656 7.9039843-1.5359846 11.04-4.608 4.704-7.0559755 4.704-11.952-1.5359846-8.9599838-4.608-12.192-6.7519786-4.848-11.04-4.848-7.9039853 1.6159838-10.848 4.848-4.416 7.2799757-4.416 12.144z"/><path d="m78.02 44.352v27.648h-10.752v-71.136h10.752v29.376c1.5360077-3.1360157 3.8559845-5.599991 6.96-7.392s6.4479821-2.688 10.032-2.688c5.760029 0 10.415982 1.7599824 13.968 5.28s5.328 8.6079667 5.328 15.264v31.296h-10.752v-28.032c0-9.408047-3.903961-14.112-11.712-14.112-3.7120186 0-6.9439862 1.2319877-9.696 3.696s-4.128 6.0639763-4.128 10.8z"/><g transform="translate(129 20)"><path d="m22 39.0259451v5.6206669c-3.6905077-.6825875-6.8809653-2.3540177-9.5714286-5.0143127-3.61906569-3.5784851-5.4285714-7.9558744-5.4285714-13.1322993s1.80950571-9.5538142 5.4285714-13.1322993c2.6904633-2.660295 5.8809209-4.33172523 9.5714286-5.01431271v5.62697241c-2.1705446.5593075-4.0648815 1.6070386-5.6830357 3.1432028-2.5446556 2.4157209-3.8169643 5.5411686-3.8169643 9.3764368s1.258916 6.9731679 3.7767857 9.4137931c1.636521 1.5215674 3.5442507 2.5589483 5.7232143 3.112152zm8-.0063055c2.1705446-.5593075 4.0648815-1.6070386 5.6830357-3.1432028 2.5446556-2.4157209 3.8169643-5.5411686 3.8169643-9.3764368s-1.2723087-6.9607159-3.8169643-9.3764368c-1.6181542-1.5361642-3.5124911-2.5838953-5.6830357-3.1432028v-5.62697241c3.6905077.68258748 6.8809653 2.35401771 9.5714286 5.01431271 3.6190657 3.5784851 5.4285714 7.9558744 5.4285714 13.1322993s-1.8095057 9.5650672-5.4285714 13.1660584c-2.6904633 2.6435636-5.8809209 4.3044817-9.5714286 4.9827762z"/><path d="m39 4v-4h13v13h-4v-9zm-26 0h-9v9h-4v-13h13zm26 48v-4h9v-9h4v13zm-26 0h-13v-13h4v9h9z"/></g><path d="m217.852 72.768c-6.464032 0-12.095976-2.4319757-16.896-7.296s-7.2-11.2639603-7.2-19.2 2.463975-14.2719763 7.392-19.008 10.799966-7.104 17.616-7.104 12.303979 2.8799712 16.464 8.64v-28.032h10.752v71.232h-10.752v-7.68c-3.96802 5.6320282-9.759962 8.448-17.376 8.448zm-13.344-26.016c0 4.8640243 1.567984 8.8319846 4.704 11.904s6.815979 4.608 11.04 4.608 7.807985-1.5519845 10.752-4.656 4.416-7.0879757 4.416-11.952-1.471985-8.9279837-4.416-12.192-6.559979-4.896-10.848-4.896-7.967985 1.6319837-11.04 4.896-4.608 7.3599754-4.608 12.288z"/><path d="m275.884 58.56c3.072015 3.0720154 6.943977 4.608 11.616 4.608s8.527985-1.5519845 11.568-4.656 4.56-7.1199754 4.56-12.048-1.519985-8.9439845-4.56-12.048-6.895977-4.656-11.568-4.656-8.527985 1.5519845-11.568 4.656-4.56 7.1199754-4.56 12.048 1.503985 8.9599843 4.512 12.096zm30.816 6.624c-5.120026 5.0560253-11.519962 7.584-19.2 7.584s-14.079974-2.5439746-19.2-7.632-7.68-11.3119632-7.68-18.672 2.559974-13.5839746 7.68-18.672 11.519962-7.632 19.2-7.632 14.079974 2.5439746 19.2 7.632 7.68 11.3119632 7.68 18.672-2.559974 13.5999744-7.68 18.72z"/></g></svg>